#!OML:ASF E:\Steps\Project 1\Capture day 1\Session 2\Subject.ASF
:FULLY-SPECIFIED
:DEGREES
134
root 16.3796 16.3322 21.3101 -156.278 -3.17527 177.8
lowerback -30.6767 -2.31592 -7.80177
upperback -0.461169 -0.834705 -0.0988826
thorax 15.6862 -1.17761 3.71829
lowerneck -6.59007 -1.60351 0.933817
upperneck 14.0306 -2.89672 1.2932
head 5.315 -1.44894 0.0452647
rclavicle -4.96962e-016 -3.73715e-014
rhumerus -34.098 -22.1291 -78.4929
rradius 27.4299
rwrist 2.21484
rhand -6.18369 -52.221
rfingers 7.12502
rthumb 19.6558 -81.2473
lclavicle -4.96962e-016 -3.73715e-014
lhumerus -28.542 5.9375 81.7335
lradius 20.4343
lwrist -5.2675
lhand -23.7871 -12.3159
lfingers 7.12502
lthumb 2.68296 17.647
rfemur -20.5937 6.24701 20.2359
rtibia 7.65766
rfoot -18.682 -1.13204
rtoes -15.3256
lfemur -22.6432 -9.0298 -22.0404
ltibia 10.4566
lfoot -8.05328 1.50408
ltoes -42.1583
135
root 16.3798 16.3319 21.3308 -156.183 -3.31318 177.788
lowerback -30.509 -2.28484 -7.72155
upperback -0.516568 -0.836453 -0.139204
thorax 15.5433 -1.16595 3.63313
lowerneck -6.49036 -1.56458 0.83232
upperneck 13.9617 -2.85461 1.47058
head 5.28057 -1.42339 0.121296
rclavicle -5.36719e-015 -2.54444e-014
rhumerus -34.1057 -22.2523 -78.4953
rradius 27.4036
rwrist 2.29717
rhand -6.16718 -52.2635
rfingers 7.12502
rthumb 19.6716 -81.2882
lclavicle -5.36719e-015 -2.54444e-014
lhumerus -28.5327 5.76641 81.7503
lradius 20.4641
lwrist -5.08768
lhand -23.9544 -12.4768
lfingers 7.12502
lthumb 2.52142 17.4881
rfemur -20.8154 6.1157 20.2407
rtibia 7.75875
rfoot -18.6844 -1.16629
rtoes -15.6474
lfemur -22.9165 -9.03482 -22.0219
ltibia 10.6095
lfoot -8.04174 1.41634
ltoes -41.8906
136
root 16.3828 16.332 21.3453 -156.181 -3.43462 177.824
lowerback -30.3807 -2.27044 -7.66333
upperback -0.480139 -0.838366 -0.125602
thorax 15.5296 -1.15891 3.61985
lowerneck -6.6 -1.55241 0.812134
upperneck 14.0822 -2.84005 1.44967
head 5.33656 -1.41777 0.11694
rclavicle -1.49089e-016 -2.5842e-014
rhumerus -33.9457 -22.2123 -78.5584
rradius 27.3409
rwrist 2.23283
rhand -6.14397 -52.3147
rfingers 7.12502
rthumb 19.694 -81.3371
lclavicle -1.49089e-016 -2.5842e-014
lhumerus -28.5026 5.47681 81.8716
lradius 20.6548
lwrist -4.69338
lhand -23.8837 -12.7697
lfingers 7.12502
lthumb 2.58968 17.1943
rfemur -20.9123 6.06863 20.3265
rtibia 7.86037
rfoot -18.6948 -1.22999
rtoes -15.7529
lfemur -23.0773 -8.98656 -21.9609
ltibia 10.7958
lfoot -8.02045 1.34756
ltoes -43.0407
137
root 16.385 16.3328 21.3501 -156.269 -3.44155 177.914
lowerback -30.3614 -2.20672 -7.53093
upperback -0.379862 -0.780453 -0.132032
thorax 15.6342 -1.12279 3.56752
lowerneck -6.67922 -1.49921 0.956377
upperneck 14.2887 -2.76108 1.18282
head 5.4082 -1.39047 0.0128818
rclavicle -2.33572e-015 -1.55052e-014
rhumerus -33.8027 -22.0761 -78.6613
rradius 27.3089
rwrist 1.95634
rhand -6.13174 -52.2315
rfingers 7.12502
rthumb 19.7057 -81.2527
lclavicle -2.33572e-015 -1.55052e-014
lhumerus -28.5113 5.42261 81.8902
lradius 20.9032
lwrist -4.63558
lhand -23.6547 -13.0613
lfingers 7.12502
lthumb 2.8108 16.9
rfemur -20.869 6.15474 20.4321
rtibia 7.89536
rfoot -18.7002 -1.24134
rtoes -15.4315
lfemur -23.0134 -9.0152 -21.8372
ltibia 10.7994
lfoot -8.02837 1.39873
ltoes -42.7788
138
root 16.3849 16.3328 21.3542 -156.254 -3.39563 177.981
lowerback -30.3948 -2.09456 -7.36977
upperback -0.371271 -0.67613 -0.203619
thorax 15.6464 -1.06345 3.44421
lowerneck -6.71185 -1.47164 1.29929
upperneck 14.6463 -2.73534 0.759752
head 5.51466 -1.39438 -0.177371
rclavicle 3.37934e-015 -1.43125e-014
rhumerus -33.8115 -22.0487 -78.7481
rradius 27.3007
rwrist 1.8123
rhand -6.12624 -52.1752
rfingers 7.12502
rthumb 19.711 -81.1959
lclavicle 3.37934e-015 -1.43125e-014
lhumerus -28.5976 5.28926 81.8092
lradius 21.0887
lwrist -4.5216
lhand -23.5024 -13.358
lfingers 7.12502
lthumb 2.95787 16.6012
rfemur -20.9336 6.20943 20.4835
rtibia 7.9156
rfoot -18.6745 -1.15084
rtoes -15.0683
lfemur -23.0193 -9.07756 -21.7398
ltibia 10.733
lfoot -8.06943 1.48558
ltoes -42.1285
